<svg xmlns="http://www.w3.org/2000/svg" viewBox="0 0 640 480" role="img" aria-label="BrewBill product image placeholder">
  <defs><linearGradient id="bg" x1="0" y1="0" x2="1" y2="1"><stop stop-color="#f7e7d1"/><stop offset="1" stop-color="#b96d32"/></linearGradient></defs>
  <rect width="640" height="480" fill="url(#bg)"/>
  <circle cx="320" cy="245" r="132" fill="#fff8ef"/>
  <path d="M220 210h182v102c0 45-36 81-81 81h-20c-45 0-81-36-81-81V210Z" fill="#532716"/>
  <path d="M402 237h43c30 0 40 53 5 68h-48" fill="none" stroke="#532716" stroke-width="22" stroke-linecap="round"/>
  <path d="M278 179c-20-31 16-42 0-72m48 72c-20-31 16-42 0-72m48 72c-20-31 16-42 0-72" fill="none" stroke="#f4ad26" stroke-width="11" stroke-linecap="round"/>
  <text x="320" y="445" fill="#fff" text-anchor="middle" font-family="Arial, sans-serif" font-size="28" font-weight="700" letter-spacing="4">BREWBILL</text>
</svg>
